<mxfile host="app.diagrams.net" modified="2023-07-06T04:10:10.949Z" agent="Mozilla/5.0 (Windows NT 10.0; Win64; x64) AppleWebKit/537.36 (KHTML, like Gecko) Chrome/114.0.0.0 Safari/537.36" version="21.3.7" etag="JKMFLFw_u8HhWu0WXYFE" type="github">
  <diagram name="Page-1" id="8d5ssQAJ_DrUx-Q4HgWk">
    <mxGraphModel>
      <root>
        <mxCell id="0" />
        <mxCell id="1" parent="0" />
      </root>
    </mxGraphModel>
  </diagram>
</mxfile>
